# xmcd
#
# Track frame offsets: 
#        150
#        11200
#        24620
#        35975
#        57855
#        67340
#        78257
#        90900
#        103727
#        117005
#        130505
#        140095
#        152790
#        167792
#        177777
#        188390
#        202207
#        215882
#        229695
#        241560
#        253252
#        265475
#        276712
#        292662
#        305790
#        317467
#
# Disc length: 4398 seconds
#
# Revision: 3
# Processed by: cddbd v1.5.2PL0 Copyright (c) Steve Scherf et al.
# Submitted via: ExactAudioCopy v1.0b1
#
DISCID=81112c1a
DTITLE=Various Artist - The Fire and Fury Story CD 2
DYEAR=1996
DGENRE=Blues
TTITLE0=Wilbert Harrison - Kansas City
TTITLE1=Buster Brown - Fannie Mae
TTITLE2=Buster Brown - Sugar Babe
TTITLE3=Bobby Marchan - There Is Something On Your Mind Pt. 1
TTITLE4=Gladys Knight and The Pips - Every Beat Of My Heart (Fury versio
TTITLE4=n)
TTITLE5=Lee Dorsey - Ya Ya
TTITLE6=King Curtis and The Knoble Knights - Soul Twist
TTITLE7=Gladys Knight and The Pips - Letter Full Of Tears
TTITLE8=Don Gardner and Dee Dee Ford - I Need Your Lovin'
TTITLE9=Don Gardner and Dee Dee Ford - Don't You Worry
TTITLE10=Les Cooper and The Soul Rockers - Wiggle Wobble
TTITLE11=Elmore James - The Sky Is Crying
TTITLE12=Elmore James - It Hurts Me Too
TTITLE13=Lee Dorsey - Do Re Mi
TTITLE14=Arthur 'Big Boy' Crudup - That's All Right
TTITLE15=Lightnin' Hopkins - Mojo Hand
TTITLE16=Tarheel Slim - Number Nine Train
TTITLE17=Tarheel Slim and Little Annie - Much Too Late
TTITLE18=Noble Watts - Jookin'
TTITLE19=Noble Watts and June Bateman - Go Away Mr. Blues
TTITLE20=Wild Jimmy Spruill - Kansas City March
TTITLE21=The Upsetters - Jay Walkin'
TTITLE22=Dr. Horse - Jack That Cat Was Clean
TTITLE23=Dr. Horse - Salt Pork, West Virginia
TTITLE24=Titus Turner - Bow Wow
TTITLE25=Mary 'B' - Something for You Baby
EXTD=
EXTT0=
EXTT1=
EXTT2=
EXTT3=
EXTT4=
EXTT5=
EXTT6=
EXTT7=
EXTT8=
EXTT9=
EXTT10=
EXTT11=
EXTT12=
EXTT13=
EXTT14=
EXTT15=
EXTT16=
EXTT17=
EXTT18=
EXTT19=
EXTT20=
EXTT21=
EXTT22=
EXTT23=
EXTT24=
EXTT25=
PLAYORDER=
